<svg width="197" height="177" viewBox="0 0 197 177" fill="none" xmlns="http://www.w3.org/2000/svg">
<rect x="4.77588" y="51.8243" width="179.091" height="69.3649" fill="white"/>
<path d="M46.9047 59.926C47.0169 60.0865 47.0658 60.286 47.0415 60.4832C47.0415 60.7045 47.018 60.9298 47.0141 61.1552C47.0141 61.9746 47.2369 62.2696 47.9991 62.413C48.2884 62.4663 48.5854 62.4663 48.8786 62.4909C49.5251 62.5073 50.147 62.7545 50.6414 63.1915C50.9109 63.4224 51.2 63.6267 51.5053 63.802C51.6776 63.9139 51.8773 63.9709 52.08 63.9658C52.2827 63.9607 52.4796 63.8938 52.6466 63.7733C52.8898 63.6018 53.1234 63.4157 53.3463 63.2161C53.5964 63.003 53.8192 62.7572 54.0811 62.5646C54.3387 62.3621 54.6381 62.2258 54.9551 62.1667C55.2722 62.1076 55.5981 62.1274 55.9065 62.2246C56.4446 62.3975 56.9575 62.647 57.4309 62.9662C58.2635 63.4741 59.167 63.8418 60.1084 64.056C60.525 64.1686 60.9621 64.1686 61.3787 64.056C61.6093 63.9864 61.8438 63.9372 62.0823 63.8839C62.5333 63.7912 63.0011 63.8681 63.4034 64.1011C63.6459 64.2231 63.8542 64.4087 64.0083 64.6398C64.1624 64.8709 64.2569 65.1398 64.2829 65.4204C64.33 65.867 64.3142 66.3184 64.236 66.7602C64.1048 67.5127 64.2561 68.2892 64.6581 68.9276C64.8418 69.239 65.0216 69.5504 65.2014 69.8618C65.7123 70.7558 66.0992 71.7215 66.3506 72.7298C66.3413 72.7993 66.3176 72.8657 66.2811 72.9244C66.2446 72.9832 66.1963 73.0329 66.1395 73.0699C63.1259 74.9301 60.2764 77.1016 56.8876 78.2406C54.007 79.1983 50.9032 79.1146 48.0734 78.003C45.4975 77.0606 43.2148 75.5446 40.9908 73.9303C38.9387 72.4471 36.8514 71.0336 34.7368 69.661C34.4476 69.4726 34.1036 69.3373 33.9941 68.9399C34.8022 67.7272 35.7876 66.6556 36.914 65.7646C39.5311 63.4801 42.635 61.8905 45.9627 61.1306C46.6936 60.9421 46.6193 60.3357 46.9047 59.926Z" fill="#EE7527"/>
<path d="M70.6268 78.4618C71.2874 79.1133 72.0496 79.1297 72.8626 78.8715C73.1675 78.7773 73.4763 78.6912 73.7851 78.6011C73.9141 78.5642 74.0392 78.5151 74.176 78.4905C75.0632 78.3266 75.5088 78.7199 75.458 79.6664C75.4186 80.2526 75.2727 80.8256 75.0281 81.3544C74.7523 81.9283 74.4167 82.4683 74.0274 82.9647C73.6874 83.4276 73.3395 83.8824 72.9955 84.3413C69.9076 85.8737 67.0855 87.9305 63.9703 89.4178C59.9873 91.323 56.0395 91.1714 52.1034 89.3317C49.6589 88.1264 47.327 86.6848 45.138 85.0256C44.8579 84.7863 44.5423 84.5967 44.2038 84.4642C41.7262 82.8578 39.1631 81.401 36.5271 80.1007C34.1818 78.9617 31.7662 77.9538 29.1669 77.585C28.3147 77.5368 27.4661 77.4328 26.6263 77.2736C26.2107 76.1947 26.1153 75.0095 26.3527 73.8729C26.4018 73.7169 26.4619 73.5649 26.5325 73.4181C26.8252 73.2164 27.1791 73.1361 27.5253 73.1928C30.2379 73.1231 32.7278 74.0368 35.1786 75.1103C38.8919 76.7492 42.2729 78.9944 45.6696 81.2233C45.9885 81.4293 46.3173 81.618 46.6546 81.7887C49.3907 83.8374 52.4278 85.0419 55.8557 84.8002C57.6947 84.6027 59.475 84.0099 61.0856 83.0589C62.2452 82.4334 63.3827 81.7601 64.4979 81.039C66.0682 80.0511 67.7367 79.246 69.4738 78.638C69.8321 78.4577 70.2343 78.3963 70.6268 78.4618Z" fill="#ECB03B"/>
<path d="M67.5624 94.777C67.8096 95.6961 67.941 96.6451 67.9533 97.6C67.9705 98.5947 67.6122 99.5562 66.9565 100.275C66.5751 100.709 66.1607 101.109 65.7175 101.472C65.4331 101.684 65.2044 101.968 65.0527 102.297C64.901 102.627 64.8312 102.991 64.8497 103.357C64.8497 103.766 64.8497 104.143 64.8497 104.537C64.8735 104.933 64.8001 105.33 64.6366 105.688C64.4731 106.047 64.2249 106.355 63.9155 106.585C63.8756 106.622 63.8338 106.656 63.7904 106.688C62.834 107.377 62.1167 108.374 61.7462 109.527C61.7188 109.605 61.6836 109.683 61.6563 109.761C60.8433 111.867 59.2837 112.944 57.2081 113.284C56.6023 113.382 55.9964 113.489 55.3945 113.624C55.0795 113.685 54.7608 113.724 54.4408 113.739C54.0503 113.785 53.6561 113.698 53.3162 113.492C52.9763 113.285 52.7087 112.97 52.5529 112.592C52.4148 112.32 52.2972 112.038 52.2011 111.748C51.9006 110.726 51.3634 109.799 50.6376 109.048C50.3409 108.762 50.1098 108.41 49.9615 108.018C49.8133 107.625 49.7517 107.203 49.7816 106.782C49.7816 106.614 49.7816 106.446 49.7816 106.278C49.8036 105.233 49.5317 104.204 48.9998 103.32C48.7731 102.939 48.5659 102.545 48.3392 102.164C47.9808 101.585 47.7551 100.927 47.6798 100.241C47.6045 99.5548 47.6817 98.8599 47.9054 98.2105C47.9718 97.9974 48.0383 97.8007 48.1164 97.5713C48.4252 96.7068 48.7067 95.8341 48.9373 94.9409C49.293 94.7524 49.5588 95.0023 49.8246 95.1662C51.0254 95.8994 52.288 96.5153 53.5965 97.0059C57.2472 98.4153 60.7846 98.0507 64.2478 96.3298C65.0921 95.9201 65.9324 95.4776 66.7494 94.9941C66.9995 94.8303 67.2301 94.6172 67.5624 94.777Z" fill="#2C2554"/>
<path d="M46.5371 81.9116C46.2088 81.9485 45.9977 81.7027 45.7554 81.547C44.0707 80.4653 42.4056 79.3468 40.7014 78.2979C38.318 76.7991 35.807 75.5359 33.2005 74.5244C31.0694 73.6912 28.8008 73.3137 26.5283 73.414C26.8119 72.5475 27.0276 71.6582 27.1733 70.7549C27.3522 69.5306 27.9563 68.4187 28.8696 67.6328L30.0423 66.629C30.1204 66.6003 30.2143 66.543 30.2729 66.5757C31.5667 67.2723 32.9699 67.7762 34.0487 68.8661C34.2207 68.9972 34.3849 69.1365 34.5647 69.2512C36.7379 70.6361 38.8643 72.0988 40.9594 73.5984C42.5947 74.82 44.3126 75.9155 46.0993 76.8762C47.6078 77.6715 49.222 78.224 50.8875 78.515C52.6889 78.8168 54.5311 78.7092 56.2894 78.1996C58.0874 77.6473 59.8078 76.8482 61.4059 75.8232C62.6059 75.0857 63.7863 74.3113 64.9785 73.5615C65.4358 73.2706 65.9049 73.0002 66.3661 72.7216C66.5288 72.9412 66.6495 73.1916 66.7218 73.4591C67.1246 74.5271 67.8386 75.4347 68.7621 76.0526C69.2844 76.3915 69.7161 76.8638 70.0168 77.4252C70.2162 77.7816 70.4351 78.1299 70.6462 78.4823C69.9856 78.7117 69.325 78.9248 68.6918 79.1706C67.5637 79.6113 66.4721 80.1485 65.428 80.7767C65.188 80.9527 64.9246 81.0907 64.6463 81.1864C63.1192 81.5731 61.5628 81.8185 59.9949 81.9198C58.6874 81.9456 57.3905 82.1706 56.1448 82.5877C54.378 83.2473 52.6543 83.2719 50.9501 82.3419C49.9736 81.7907 48.8351 81.6445 47.7605 81.9321C47.3627 82.0734 46.9305 82.0661 46.5371 81.9116Z" fill="#65A0A8"/>
<path d="M67.5623 94.777C67.3278 94.9081 67.0855 95.031 66.8548 95.1867C65.3729 96.0838 63.8144 96.8341 62.1996 97.4279C60.9578 97.8658 59.6594 98.1021 58.3495 98.1285C57.0653 98.1409 55.7864 97.9545 54.5541 97.5754C52.7863 97.0226 51.0911 96.2408 49.5079 95.2482C49.3242 95.1335 49.117 95.0474 48.9372 94.9491C49.0103 94.3238 48.953 93.6894 48.7695 93.0895C48.5859 92.4897 48.2804 91.9387 47.8741 91.4746C47.6317 91.1755 47.4011 90.8724 47.1509 90.5814C46.3753 89.7207 45.9 88.6103 45.8024 87.4307C45.7829 87.1562 45.7282 86.8817 45.6852 86.6112C45.5989 86.0287 45.3531 85.485 44.9777 85.0461C44.9347 84.8945 44.9777 84.8248 45.1301 84.8863C45.9119 85.4067 46.721 85.9147 47.5105 86.4392C48.8985 87.3912 50.3453 88.2453 51.8414 88.9958C53.1965 89.6621 54.6288 90.14 56.1019 90.4176C58.0324 90.7685 60.0151 90.628 61.8829 90.0078C63.3154 89.5466 64.6965 88.9257 66.0027 88.1559C67.7773 87.1234 69.5206 86.0581 71.3147 85.0256C71.7798 84.7552 72.2802 84.5462 72.7688 84.3209C72.8235 84.2922 72.9134 84.3496 72.9876 84.366C72.9407 84.4479 72.8899 84.5258 72.8391 84.6077L72.8118 84.6405C72.153 85.8656 71.1899 86.8808 70.0248 87.5782C69.5161 87.8857 69.0358 88.2423 68.5903 88.6435C68.0933 89.0737 67.7083 89.6289 67.4711 90.2572C67.234 90.8855 67.1524 91.5665 67.234 92.2367C67.3083 93.0685 67.449 93.9207 67.5623 94.777Z" fill="#6C792B"/>
<path d="M149.861 71.7587C149.603 71.6973 149.37 71.5543 149.192 71.349C148.323 70.6806 147.269 70.3268 146.191 70.3411C145.64 70.3347 145.096 70.4543 144.594 70.6913C144.092 70.9284 143.646 71.2773 143.286 71.7136C142.607 72.5546 142.21 73.6057 142.154 74.7061C142.099 75.8064 142.39 76.8954 142.981 77.8062C143.323 78.3123 143.769 78.7313 144.286 79.032C144.802 79.3328 145.377 79.5076 145.968 79.5434C146.986 79.652 148.012 79.4303 148.907 78.9083C149.017 78.8565 149.109 78.7696 149.169 78.66C149.23 78.5505 149.256 78.4237 149.243 78.2979C149.224 77.8881 149.243 77.4784 149.243 77.0359C149.243 76.5934 149.196 76.6262 148.809 76.6262C148.164 76.6262 147.523 76.6262 146.882 76.6262C146.101 76.6262 146.151 76.6713 146.151 75.8436C146.151 75.2823 146.151 74.721 146.151 74.1597C146.146 74.1175 146.151 74.0747 146.164 74.0345C146.177 73.9943 146.199 73.9577 146.227 73.9277C146.256 73.8976 146.291 73.8748 146.329 73.8611C146.367 73.8473 146.408 73.8429 146.449 73.8483H147.492C148.774 73.8483 150.06 73.8483 151.346 73.8483C151.557 73.8483 151.772 73.8483 151.987 73.8483C152.04 73.8469 152.091 73.8664 152.131 73.9028C152.171 73.9392 152.196 73.9899 152.202 74.0449C152.215 74.129 152.221 74.2139 152.222 74.299C152.222 76.1222 152.222 77.9455 152.222 79.7688C152.23 79.9073 152.205 80.0458 152.148 80.1712C152.091 80.2966 152.005 80.4049 151.897 80.4858C149.341 82.4893 146.519 83.108 143.494 82.0222C140.757 81.0348 139.28 78.8756 138.959 75.8764C138.771 74.3905 139.011 72.8796 139.647 71.5374C140.131 70.4831 140.848 69.5652 141.739 68.8603C142.629 68.1554 143.668 67.684 144.768 67.4853C146.088 67.2299 147.446 67.2858 148.743 67.6492C149.729 67.9227 150.648 68.416 151.436 69.0955C151.706 69.3168 151.718 69.3782 151.518 69.6322C150.963 70.3615 150.4 71.0704 149.861 71.7587Z" fill="#494845"/>
<path d="M97.9682 103.746C97.955 103.488 98.0193 103.233 98.152 103.016L104.437 87.9264C104.492 87.7994 104.551 87.6724 104.597 87.5453C104.629 87.4523 104.69 87.3734 104.771 87.3213C104.851 87.2693 104.945 87.2471 105.039 87.2585C105.68 87.2585 106.321 87.2585 106.962 87.2585C107.055 87.2498 107.148 87.2742 107.226 87.3277C107.304 87.3813 107.363 87.4608 107.392 87.5535C107.549 87.9387 107.717 88.3238 107.877 88.709C109.855 93.4535 111.831 98.2009 113.806 102.951C113.94 103.157 114.019 103.395 114.037 103.643C113.931 103.783 113.791 103.746 113.666 103.746C113.079 103.746 112.493 103.746 111.903 103.746C111.121 103.746 111.258 103.848 110.934 103.045L109.937 100.566C109.876 100.442 109.826 100.311 109.788 100.177C109.718 99.8616 109.507 99.8001 109.245 99.8165H102.6C102.507 99.804 102.413 99.8269 102.335 99.881C102.257 99.9352 102.2 100.017 102.174 100.112C101.936 100.734 101.678 101.341 101.416 101.963C101.213 102.571 100.951 103.154 100.634 103.705L98.8712 103.746C98.5819 103.754 98.2888 103.746 97.9682 103.746Z" fill="#2C2554"/>
<path d="M81.3016 74.9792V68.5875C81.3016 68.3622 81.3016 68.1369 81.3016 67.9156C81.2977 67.881 81.3009 67.8459 81.3109 67.8127C81.321 67.7795 81.3376 67.7489 81.3598 67.7229C81.382 67.697 81.4092 67.6762 81.4396 67.6621C81.47 67.648 81.5029 67.6409 81.5361 67.6411C81.669 67.6411 81.8019 67.6411 81.927 67.6411H87.0591C87.8356 67.6295 88.6081 67.7598 89.3419 68.0262C90.2109 68.3345 90.9677 68.917 91.5086 69.6938C92.0495 70.4705 92.348 71.4036 92.3633 72.3652C92.3964 72.8963 92.3609 73.4297 92.2578 73.9508C92.1306 74.642 91.8527 75.293 91.4459 75.8531C91.0391 76.4131 90.5143 76.867 89.9125 77.1794C88.9286 77.6939 87.842 77.9551 86.7425 77.9415C86.0468 77.9415 85.351 77.9415 84.6553 77.9415C84.6154 77.9368 84.575 77.9417 84.5371 77.9558C84.4992 77.9699 84.4649 77.9927 84.4367 78.0227C84.4085 78.0527 84.3871 78.089 84.3742 78.1288C84.3613 78.1687 84.3572 78.2111 84.3621 78.2529C84.3621 79.2321 84.3621 80.2155 84.3621 81.1947C84.3621 82.4935 84.5224 82.301 83.3068 82.3132C82.7205 82.3132 82.1341 82.3132 81.5439 82.3132C81.5103 82.3156 81.4766 82.3105 81.445 82.2982C81.4134 82.2859 81.3847 82.2667 81.3607 82.242C81.3367 82.2172 81.318 82.1874 81.3058 82.1545C81.2936 82.1215 81.2881 82.0863 81.2899 82.051C81.2899 81.8298 81.2899 81.6044 81.2899 81.3791L81.3016 74.9792Z" fill="#494845"/>
<path d="M129.84 72.4225C130.085 72.3045 130.298 72.1259 130.462 71.9022C131.709 70.7099 133.135 70.5624 134.64 71.1974C135.852 71.7096 136.372 72.7994 136.559 74.0942C136.596 74.3998 136.612 74.708 136.606 75.016C136.606 77.204 136.606 79.3919 136.606 81.5716C136.606 81.7109 136.606 81.8502 136.606 81.9813C136.608 82.0235 136.6 82.0655 136.585 82.1045C136.569 82.1434 136.546 82.1783 136.516 82.2068C136.486 82.2352 136.451 82.2566 136.412 82.2693C136.374 82.282 136.333 82.2858 136.293 82.2804H134.769C134.476 82.2804 134.179 82.2804 133.886 82.2804C133.593 82.2804 133.569 82.1944 133.557 81.9158C133.557 81.7191 133.557 81.506 133.557 81.3258C133.557 79.6869 133.557 78.0193 133.557 76.364C133.565 76.0274 133.55 75.6907 133.514 75.3561C133.483 74.916 133.293 74.5048 132.983 74.2059C132.673 73.907 132.266 73.7426 131.845 73.7459C131.414 73.6956 130.98 73.8179 130.631 74.0883C130.281 74.3587 130.042 74.7573 129.961 75.2045C129.876 75.5871 129.84 75.9796 129.852 76.3722V81.42C129.852 81.6167 129.852 81.8297 129.852 82.0059C129.855 82.0411 129.85 82.0765 129.839 82.1098C129.828 82.1431 129.81 82.1736 129.787 82.1991C129.763 82.2247 129.735 82.2448 129.704 82.2581C129.673 82.2714 129.639 82.2776 129.606 82.2763H127.116C127.076 82.2819 127.035 82.278 126.996 82.265C126.958 82.2521 126.922 82.2303 126.893 82.2013C126.863 82.1723 126.84 82.1368 126.826 82.0973C126.811 82.0579 126.804 82.0155 126.807 81.9731C126.807 81.7806 126.807 81.5634 126.807 81.3872V67.8582C126.807 67.6656 126.807 67.4485 126.807 67.2723C126.805 67.237 126.811 67.2018 126.823 67.1689C126.835 67.1359 126.854 67.1061 126.878 67.0813C126.902 67.0566 126.931 67.0374 126.962 67.0251C126.994 67.0128 127.027 67.0077 127.061 67.0101C127.917 67.0101 128.773 67.0101 129.629 67.0101C129.656 67.0078 129.682 67.0113 129.707 67.0204C129.732 67.0294 129.755 67.0439 129.775 67.0627C129.794 67.0816 129.81 67.1045 129.82 67.13C129.831 67.1555 129.836 67.183 129.836 67.2108C129.836 67.4362 129.856 67.6615 129.856 67.8828L129.84 72.4225Z" fill="#494845"/>
<path d="M162.603 99.6158V102.73C162.603 102.926 162.603 103.139 162.603 103.32C162.603 103.697 162.56 103.729 162.165 103.729C162.032 103.729 161.9 103.729 161.774 103.729C161.532 103.729 161.29 103.729 161.051 103.729C160.735 103.729 160.356 103.865 160.113 103.652C159.871 103.438 160.035 103.016 159.996 102.693C160.007 102.639 160.007 102.583 159.996 102.529C159.957 102.455 159.879 102.402 159.804 102.467C159.73 102.533 159.562 102.685 159.441 102.795C158.926 103.247 158.329 103.583 157.686 103.786C157.043 103.988 156.367 104.051 155.7 103.971C155.057 103.933 154.429 103.754 153.855 103.447C153.293 103.171 152.818 102.733 152.486 102.183C152.155 101.633 151.98 100.996 151.983 100.345C151.956 99.8964 151.995 99.4461 152.096 99.0094C152.219 98.5332 152.439 98.0905 152.74 97.712C153.042 97.3335 153.418 97.0283 153.844 96.8174C154.667 96.4052 155.566 96.1844 156.478 96.17C157.416 96.121 158.355 96.219 159.265 96.4609C159.444 96.5188 159.625 96.5667 159.808 96.6043C159.835 96.6092 159.862 96.6079 159.888 96.6004C159.914 96.5928 159.938 96.5794 159.958 96.5609C159.978 96.5424 159.994 96.5194 160.005 96.4936C160.015 96.4678 160.02 96.4398 160.019 96.4117C160.079 95.788 159.904 95.1644 159.532 94.6739C159.16 94.1833 158.619 93.8645 158.026 93.7854C156.938 93.6046 155.824 93.7001 154.778 94.064C154.45 94.1747 154.117 94.2771 153.789 94.3836C153.556 94.0794 153.404 93.7162 153.347 93.3306C152.956 92.0359 152.714 92.3063 154.059 91.8065C155.606 91.2337 157.266 91.0787 158.886 91.3558C160.946 91.6917 162.427 93.1135 162.615 95.8176C162.634 96.0717 162.615 96.3257 162.615 96.5756L162.603 99.6158Z" fill="#ED6D1C"/>
<path d="M157.444 77.8144C157.5 78.2692 157.68 78.6975 157.961 79.0488C158.242 79.4002 158.613 79.6599 159.03 79.7975C159.503 79.9597 160.005 80.0071 160.498 79.9361C160.991 79.8651 161.462 79.6776 161.876 79.3878C162.122 79.228 162.306 78.8838 162.595 78.9002C162.885 78.9166 163.099 79.2812 163.346 79.4943C163.67 79.7811 163.979 80.0884 164.276 80.367C164.245 80.5496 164.152 80.7142 164.014 80.83C163.242 81.7006 162.209 82.2686 161.086 82.4402C160.026 82.6329 158.937 82.5456 157.917 82.1862C156.937 81.8342 156.079 81.1846 155.452 80.32C154.826 79.4553 154.459 78.4149 154.399 77.331C154.291 76.2377 154.455 75.1338 154.876 74.1269C155.821 72.0333 157.381 70.9065 159.613 70.8492C160.095 70.835 160.577 70.8846 161.047 70.9967C161.729 71.157 162.366 71.4774 162.912 71.9338C163.458 72.3902 163.897 72.9706 164.198 73.6312C164.749 74.8233 164.979 76.151 164.862 77.4703C164.866 77.5124 164.86 77.5548 164.845 77.5942C164.831 77.6337 164.808 77.6693 164.779 77.6984C164.75 77.7275 164.715 77.7493 164.676 77.7623C164.638 77.7753 164.597 77.7791 164.557 77.7735H163.912C162.04 77.7735 160.168 77.7735 158.296 77.7735C158.026 77.7899 157.764 77.8021 157.444 77.8144Z" fill="#494845"/>
<path d="M170.264 72.3733C170.429 72.2572 170.579 72.1195 170.71 71.9635C171.882 70.7917 173.254 70.6237 174.732 71.1236C175.142 71.2645 175.516 71.4989 175.829 71.8099C176.142 72.1209 176.386 72.5009 176.542 72.9223C176.772 73.4613 176.895 74.0443 176.901 74.6349C176.901 77.0441 176.901 79.456 176.901 81.8706C176.905 81.9266 176.905 81.9827 176.901 82.0386C176.901 82.1943 176.815 82.309 176.655 82.309H174.087C173.923 82.309 173.864 82.1779 173.86 82.0263C173.86 81.801 173.86 81.5756 173.86 81.3503V76.2083C173.877 75.7921 173.824 75.3761 173.704 74.9791C173.602 74.6297 173.394 74.3246 173.112 74.1096C172.83 73.8946 172.489 73.7813 172.14 73.7868C171.778 73.7475 171.412 73.8294 171.096 74.0207C170.78 74.212 170.53 74.5029 170.381 74.8521C170.225 75.2704 170.151 75.7181 170.166 76.1673C170.166 77.4292 170.166 78.6912 170.166 79.9531C170.166 80.6251 170.166 81.3011 170.166 81.9731C170.166 82.2476 170.096 82.3213 169.83 82.3254H167.423C167.383 82.3305 167.342 82.3261 167.304 82.3126C167.266 82.2991 167.231 82.2768 167.202 82.2473C167.173 82.2178 167.151 82.1819 167.137 82.1423C167.123 82.1026 167.118 82.0602 167.122 82.0181C167.122 81.8788 167.122 81.7395 167.122 81.6084V71.8119C167.122 71.0253 167.098 71.054 167.802 71.0581H169.889C170.084 71.0581 170.174 71.1687 170.174 71.3694C170.174 71.5702 170.174 71.7095 170.174 71.8775C170.174 72.0455 170.092 72.2094 170.264 72.3733Z" fill="#494845"/>
<path d="M108.663 78.3963C108.806 78.2651 108.903 78.0878 108.94 77.8923C109.55 75.8929 110.161 73.8948 110.773 71.8981C110.824 71.7383 110.867 71.5744 110.918 71.4146C111.047 71.05 111.071 71.0049 111.434 71.0049C112.263 71.0049 113.091 71.0049 113.92 71.0049C113.992 71.0186 114.063 71.0405 114.131 71.0704C114.138 71.2716 114.093 71.471 114.002 71.6481C112.699 75.3193 111.385 78.9876 110.058 82.6533C109.892 83.1259 109.687 83.5825 109.445 84.0177C109.206 84.4758 108.861 84.8634 108.442 85.1442C108.022 85.425 107.541 85.59 107.045 85.6238C106.052 85.7264 105.053 85.5167 104.176 85.0215C103.933 84.8863 103.902 84.8043 104.007 84.5585C104.25 83.9972 104.5 83.4399 104.754 82.8827C104.883 82.5959 104.938 82.5877 105.258 82.7065C105.453 82.7965 105.654 82.8692 105.86 82.9237C106.07 82.9694 106.285 82.9763 106.497 82.9442C106.617 82.9326 106.732 82.8908 106.832 82.8222C106.933 82.7537 107.016 82.6606 107.074 82.5509C107.133 82.4412 107.165 82.3182 107.168 82.1925C107.171 82.0669 107.145 81.9424 107.091 81.8297C106.57 80.3957 106.037 78.9617 105.493 77.5277L103.394 71.894C103.335 71.7383 103.273 71.5826 103.222 71.4269C103.105 71.0868 103.148 71.0172 103.456 71.0172C104.285 71.0172 105.114 71.0172 105.946 71.0172C105.998 71.0053 106.052 71.0047 106.104 71.0154C106.156 71.0261 106.206 71.0478 106.25 71.0793C106.294 71.1107 106.331 71.1512 106.359 71.1983C106.388 71.2454 106.407 71.2981 106.415 71.3531C106.536 71.7629 106.689 72.2054 106.826 72.6274C107.435 74.5408 108.041 76.4501 108.663 78.3963Z" fill="#494845"/>
<path d="M34.0331 68.8662C33.6654 68.7084 33.3133 68.5136 32.9816 68.2844C31.9927 67.7354 31.0272 67.1782 30.0266 66.6455C30.91 65.445 31.7855 64.2405 32.6728 63.0482C33.3839 62.061 34.237 61.1957 35.2018 60.4833C35.7028 60.1003 36.3141 59.9094 36.9333 59.9425C37.5196 59.9793 38.106 59.9834 38.7001 59.9752C39.9604 59.9689 41.2059 59.6899 42.3587 59.1558C42.9872 58.8395 43.6581 58.6253 44.3482 58.5207C44.8007 58.4609 45.2601 58.5014 45.6967 58.6395C46.001 58.7027 46.2796 58.8617 46.4954 59.0952C46.7112 59.3288 46.854 59.6258 46.9045 59.9466C46.9045 60.2006 46.9045 60.4505 46.9045 60.7004C46.9122 60.7565 46.9087 60.8137 46.8942 60.8682C46.8797 60.9228 46.8546 60.9737 46.8205 61.0175C46.7863 61.0614 46.7438 61.0974 46.6957 61.1232C46.6476 61.1491 46.5949 61.1641 46.541 61.1675C45.9781 61.315 45.4153 61.4789 44.8524 61.6346C44.0779 61.8332 43.3228 62.1076 42.5971 62.4541C42.046 62.7327 41.4714 62.9621 40.9281 63.2735C39.7015 63.9542 38.5255 64.7308 37.4102 65.5966C36.4487 66.3218 35.706 67.2806 34.85 68.1164C34.6111 68.4037 34.3363 68.6559 34.0331 68.8662Z" fill="#ED6D1C"/>
<path d="M148.649 100.042C149.149 100.562 149.607 101.029 150.056 101.509C150.255 101.718 150.248 101.767 150.056 101.996C149.053 103.192 147.643 103.928 146.128 104.045C145.03 104.169 143.921 103.984 142.915 103.508C141.989 103.085 141.182 102.419 140.574 101.573C139.966 100.727 139.577 99.7314 139.444 98.6816C139.299 97.8253 139.323 96.9467 139.516 96.1008C139.709 95.2549 140.066 94.4597 140.566 93.7649C141.918 91.8515 143.79 91.0608 146.038 91.1919C147.472 91.2492 148.834 91.8658 149.857 92.9209C149.937 92.9968 150.011 93.0789 150.08 93.1668C150.116 93.2078 150.137 93.262 150.137 93.3183C150.137 93.3747 150.116 93.4289 150.08 93.4699C149.755 93.8428 149.431 94.2156 149.098 94.5803C148.938 94.8099 148.736 95.0047 148.504 95.1539C148.254 94.9327 148.02 94.7032 147.766 94.4983C147.383 94.1654 146.936 93.9231 146.456 93.7881C145.975 93.653 145.473 93.6283 144.983 93.7158C144.396 93.8152 143.847 94.0779 143.391 94.4766C142.935 94.8752 142.59 95.395 142.391 95.9815C142.006 96.9505 141.975 98.0346 142.305 99.0258C142.459 99.5514 142.725 100.034 143.082 100.437C143.438 100.84 143.878 101.153 144.367 101.352C144.855 101.552 145.381 101.634 145.904 101.59C146.427 101.547 146.934 101.381 147.386 101.103C147.841 100.796 148.264 100.44 148.649 100.042Z" fill="#6D792B"/>
<path d="M93.4851 80.7152C93.8408 80.1375 94.1848 79.568 94.5405 79.0108C94.732 78.6994 94.7789 78.6912 95.115 78.9207C95.7417 79.3528 96.4307 79.6765 97.1554 79.8794C97.6007 79.9803 98.0577 80.012 98.5117 79.9736C98.6995 79.9618 98.8819 79.9028 99.0433 79.8016C99.1481 79.751 99.2378 79.6715 99.3029 79.5716C99.3679 79.4717 99.4059 79.3552 99.4127 79.2345C99.4196 79.1138 99.395 78.9934 99.3416 78.8861C99.2883 78.7789 99.2081 78.6889 99.1098 78.6257C98.8932 78.4602 98.6494 78.338 98.3906 78.2651C97.8785 78.0971 97.3626 77.9455 96.8583 77.7611C96.4287 77.6095 96.0083 77.4303 95.5997 77.2244C93.2545 75.9707 93.6923 72.7175 95.3457 71.6276C95.9539 71.2124 96.651 70.9618 97.3743 70.8983C98.8822 70.7784 100.388 71.1629 101.674 71.9964C101.838 72.0947 101.924 72.2258 101.826 72.4061C101.521 73.0002 101.209 73.5861 100.892 74.172C100.879 74.204 100.859 74.2324 100.834 74.2552C100.809 74.2781 100.78 74.2946 100.748 74.3037C100.716 74.3128 100.682 74.3141 100.65 74.3076C100.617 74.3011 100.586 74.287 100.56 74.2662C99.9973 73.9435 99.4038 73.684 98.7893 73.4918C98.4003 73.3866 97.9978 73.3479 97.5971 73.3771C97.4082 73.3857 97.2254 73.4496 97.0694 73.5615C96.9863 73.6082 96.9154 73.6757 96.863 73.7579C96.8107 73.8402 96.7784 73.9347 96.7692 74.0331C96.7599 74.1315 96.7739 74.2308 96.8099 74.3222C96.8459 74.4135 96.9028 74.4942 96.9756 74.5571C97.1332 74.7085 97.3143 74.8304 97.5111 74.9177C97.9293 75.1021 98.3554 75.2659 98.7853 75.4134C99.3487 75.5931 99.8976 75.8192 100.427 76.0895C100.835 76.3019 101.203 76.5891 101.514 76.9376C101.921 77.3937 102.155 77.9893 102.174 78.6134C102.189 78.9491 102.171 79.2855 102.119 79.6172C102.034 80.19 101.799 80.7271 101.442 81.17C101.085 81.6129 100.619 81.9445 100.095 82.1288C99.2367 82.4579 98.3167 82.5702 97.4095 82.4566C96.0428 82.3195 94.7388 81.7892 93.6415 80.9242C93.5906 80.9119 93.5672 80.8545 93.4851 80.7152Z" fill="#494845"/>
<path d="M122.343 89.1842C122.019 89.1227 121.675 89.0777 121.343 88.9998C121.054 88.9382 120.756 88.9466 120.471 89.0244C120.178 89.0751 119.911 89.2275 119.711 89.4572C119.511 89.6868 119.39 89.9803 119.369 90.2904C119.35 90.4577 119.341 90.626 119.341 90.7944C119.341 91.5278 119.341 91.5442 120.045 91.5483C120.69 91.5483 121.331 91.5483 121.972 91.5483C122.363 91.5483 122.422 91.6056 122.429 92.0522C122.437 92.4988 122.429 92.9495 122.429 93.3961C122.429 93.728 122.359 93.8058 122.039 93.8058C121.448 93.8058 120.866 93.8058 120.272 93.8058C120.061 93.8058 119.846 93.8058 119.631 93.8058C119.564 93.8047 119.499 93.831 119.45 93.8792C119.401 93.9274 119.372 93.9937 119.369 94.064C119.349 94.2893 119.369 94.5147 119.369 94.7359C119.369 97.3745 119.369 100.01 119.369 102.644C119.369 102.84 119.369 103.053 119.369 103.234C119.369 103.643 119.306 103.692 118.978 103.697C118.333 103.697 117.692 103.697 117.051 103.697C116.746 103.697 116.691 103.619 116.66 103.287C116.66 103.066 116.66 102.84 116.66 102.615V94.486C116.66 93.8386 116.66 93.8304 116.027 93.8263C115.144 93.8263 115.187 93.8509 115.187 92.9618C115.187 92.5521 115.187 92.1792 115.187 91.7859C115.184 91.7435 115.191 91.701 115.205 91.6614C115.22 91.6217 115.242 91.5858 115.271 91.5559C115.3 91.5261 115.334 91.503 115.372 91.4883C115.41 91.4735 115.451 91.4674 115.491 91.4704C115.542 91.4704 115.597 91.4704 115.652 91.4704C115.96 91.4336 116.343 91.6097 116.562 91.3352C116.781 91.0607 116.637 90.6879 116.644 90.356C116.662 89.8237 116.751 89.2967 116.91 88.7908C117.037 88.3298 117.271 87.9085 117.59 87.5642C117.909 87.2198 118.304 86.9629 118.74 86.816C119.846 86.4595 121.03 86.4595 122.136 86.816C122.217 86.8277 122.291 86.8693 122.344 86.9332C122.398 86.9971 122.428 87.0791 122.429 87.1642C122.429 87.6682 122.429 88.1722 122.429 88.6802C122.453 88.8535 122.423 89.0301 122.343 89.1842Z" fill="#65A0A8"/>
<path d="M26.6182 77.2696C26.6801 77.2151 26.7533 77.1763 26.832 77.1564C26.9107 77.1365 26.9927 77.136 27.0716 77.1549C27.8533 77.3311 28.6624 77.2696 29.4559 77.4007C30.849 77.6448 32.2158 78.0318 33.5366 78.5562C36.0328 79.5429 38.4496 80.7377 40.7639 82.1289C41.9756 82.8378 43.1795 83.5507 44.3364 84.3537C44.3364 84.7266 44.0433 84.6037 43.8635 84.5996C43.3653 84.642 42.8642 84.6227 42.3703 84.5422C41.991 84.538 41.6253 84.3928 41.3384 84.1325C41.0961 83.9604 40.8538 83.7842 40.6036 83.6285C40.2827 83.4242 39.9201 83.3028 39.5456 83.2743C39.1711 83.2459 38.7956 83.3111 38.4499 83.4646C38.249 83.5379 38.0542 83.6283 37.8675 83.735C36.8481 84.3103 35.6729 84.5067 34.5333 84.2923C33.7907 84.1898 33.048 84.0997 32.3093 83.9973C32.0474 83.9604 31.7855 83.9071 31.5275 83.8498C31.1706 83.782 30.8343 83.6259 30.5467 83.3942C30.2591 83.1626 30.0285 82.8622 29.8741 82.5182C29.4354 81.6238 28.8492 80.8179 28.1426 80.1377C28.0292 80.023 27.9198 79.896 27.8103 79.7771C27.1622 79.1003 26.7435 78.2196 26.6182 77.2696Z" fill="#6D792B"/>
<path d="M120.572 70.8491C121.283 70.8147 121.993 70.9324 122.659 71.1952C123.325 71.4579 123.933 71.8602 124.446 72.3774C124.528 72.4485 124.6 72.5329 124.657 72.6273C124.675 72.704 124.675 72.7841 124.657 72.8609C124.649 72.8879 124.634 72.9121 124.614 72.9305L123.082 74.6554C123.061 74.6821 123.034 74.7036 123.004 74.7183C122.974 74.733 122.941 74.7407 122.908 74.7407C122.875 74.7407 122.842 74.733 122.812 74.7183C122.782 74.7036 122.755 74.6821 122.734 74.6554C122.57 74.5079 122.417 74.3522 122.245 74.2211C121.888 73.9082 121.457 73.7007 120.998 73.6197C120.538 73.5387 120.067 73.5872 119.631 73.7603C119.196 73.9333 118.812 74.2246 118.519 74.6044C118.226 74.9842 118.035 75.4388 117.965 75.9215C117.864 76.4184 117.864 76.9323 117.965 77.4293C118.434 79.6704 120.49 80.24 121.999 79.3754C122.298 79.1885 122.582 78.9761 122.847 78.7404C122.874 78.71 122.908 78.6864 122.945 78.6715C122.982 78.6566 123.022 78.6507 123.061 78.6542C123.101 78.6578 123.139 78.6707 123.173 78.692C123.207 78.7133 123.236 78.7425 123.258 78.7772C123.649 79.187 124.039 79.5967 124.43 80.031C124.821 80.4653 124.821 80.4776 124.43 80.8832C123.459 81.9144 122.139 82.5031 120.756 82.5221C119.872 82.5693 118.989 82.4141 118.169 82.0673C117.04 81.5629 116.105 80.6755 115.516 79.5475C114.926 78.4196 114.715 77.1165 114.916 75.8477C115.057 74.6542 115.555 73.5382 116.34 72.661C117.125 71.7838 118.155 71.1909 119.283 70.9679C119.411 70.9347 119.542 70.9114 119.673 70.8983C119.998 70.8819 120.279 70.8819 120.572 70.8491Z" fill="#494845"/>
<path d="M127.194 93.8263C127.366 93.5477 127.514 93.2978 127.675 93.0519C128.016 92.495 128.48 92.032 129.028 91.7019C129.575 91.3718 130.19 91.1842 130.821 91.1549C131.177 91.1262 131.267 91.1959 131.267 91.5647C131.267 92.3226 131.267 93.0765 131.267 93.8345C131.267 94.109 131.228 94.1418 130.931 94.1746C130.798 94.1746 130.661 94.1746 130.54 94.2115C129.719 94.2963 128.95 94.6682 128.356 95.2673C127.761 95.8664 127.377 96.6577 127.264 97.5138C127.154 98.0911 127.101 98.6787 127.104 99.2674C127.104 100.497 127.104 101.726 127.104 102.955C127.104 103.148 127.104 103.344 127.104 103.541C127.104 103.569 127.099 103.596 127.088 103.622C127.077 103.648 127.062 103.671 127.043 103.69C127.023 103.709 127 103.724 126.975 103.734C126.95 103.743 126.923 103.747 126.897 103.746C126.146 103.746 125.4 103.746 124.653 103.746C124.62 103.748 124.586 103.743 124.555 103.731C124.523 103.718 124.495 103.699 124.471 103.674C124.447 103.649 124.429 103.62 124.417 103.587C124.406 103.554 124.401 103.519 124.403 103.483C124.403 103.317 124.403 103.149 124.403 102.98V92.2079C124.403 92.0399 124.403 91.8719 124.403 91.704C124.4 91.6691 124.403 91.634 124.414 91.6007C124.424 91.5675 124.442 91.537 124.464 91.5111C124.486 91.4852 124.514 91.4646 124.544 91.4505C124.575 91.4365 124.608 91.4293 124.641 91.4294C125.388 91.4294 126.138 91.4294 126.885 91.4294C127.049 91.4294 127.116 91.5483 127.12 91.704C127.12 92.2079 127.12 92.7119 127.12 93.2158C127.071 93.4219 127.097 93.6396 127.194 93.8263Z" fill="#C23D18"/>
<path d="M136.446 97.604V102.738C136.446 102.963 136.446 103.189 136.446 103.41C136.449 103.452 136.444 103.494 136.431 103.533C136.417 103.573 136.396 103.609 136.368 103.639C136.34 103.669 136.307 103.693 136.27 103.709C136.233 103.724 136.193 103.731 136.153 103.729H135.91C135.375 103.729 134.839 103.729 134.304 103.729C133.768 103.729 133.745 103.705 133.733 103.094C133.733 103.041 133.733 102.984 133.733 102.926C133.733 99.3754 133.733 95.8135 133.733 92.2407C133.733 91.3803 133.733 91.4008 134.515 91.4213C134.968 91.4213 135.426 91.4213 135.879 91.4213C136.438 91.4213 136.438 91.4213 136.45 92.0523V97.6081L136.446 97.604Z" fill="#ECB03B"/>
<path d="M74.9576 98.952C75.0026 99.8817 74.7464 100.8 74.2305 101.558C73.94 101.994 73.6788 102.452 73.4488 102.926C73.2682 103.27 73.144 103.642 73.0814 104.028C72.9876 104.582 72.8781 105.127 72.753 105.667C72.6682 106.079 72.5046 106.467 72.2723 106.81C72.139 107.04 71.94 107.22 71.7035 107.325C71.467 107.429 71.2051 107.453 70.955 107.392C70.6928 107.328 70.4557 107.181 70.276 106.97C70.0963 106.76 69.9827 106.497 69.9505 106.216C69.947 106.189 69.947 106.162 69.9505 106.134C69.9837 105.549 69.9602 104.961 69.8801 104.381C69.8936 104.073 69.9854 103.775 70.1459 103.516C70.2905 103.213 70.4313 102.914 70.5642 102.611C70.6268 102.471 70.6546 102.317 70.645 102.163C70.6354 102.009 70.5888 101.86 70.5094 101.73C70.3619 101.464 70.2413 101.182 70.1498 100.89C70.0793 100.632 70.0817 100.358 70.1566 100.101C70.2315 99.8447 70.3758 99.6162 70.572 99.4437C70.725 99.2828 70.93 99.1878 71.1466 99.1774H71.5374C72.3192 99.1323 72.5224 98.9602 72.7609 98.2227C72.8117 98.0629 72.8547 97.899 72.9133 97.7433C72.9574 97.6126 73.0179 97.4886 73.0931 97.3746C73.613 96.6125 74.3087 96.6658 74.7074 97.4975C74.9024 97.9538 74.9883 98.4531 74.9576 98.952Z" fill="#5F230F"/>
<path d="M134.953 89.5284C134.617 89.4793 134.171 89.6513 133.729 89.4219C133.653 88.9826 133.636 88.5345 133.678 88.0903C133.678 87.783 133.678 87.4757 133.678 87.1684C133.675 87.1266 133.68 87.0844 133.694 87.0449C133.707 87.0054 133.729 86.9696 133.758 86.9399C133.786 86.9102 133.82 86.8874 133.858 86.873C133.895 86.8587 133.936 86.8533 133.976 86.857C134.347 86.857 134.722 86.8284 135.093 86.857C135.562 86.8857 136.043 86.7259 136.497 86.9718C136.579 87.4349 136.602 87.9074 136.567 88.3771C136.567 88.6557 136.567 88.9343 136.567 89.1965C136.57 89.2388 136.564 89.2811 136.55 89.3208C136.536 89.3605 136.514 89.3965 136.485 89.4264C136.457 89.4563 136.422 89.4795 136.385 89.4942C136.347 89.509 136.306 89.5151 136.266 89.512C135.856 89.5366 135.457 89.5284 134.953 89.5284Z" fill="#ECB03D"/>
<path d="M72.8118 84.6116L72.8079 84.579H72.8393L72.8511 84.6157L72.8118 84.6116Z" fill="#ECB03B"/>
<path d="M46.5374 81.9116L48.1008 81.5961C48.9448 81.4307 49.8168 81.5364 50.6024 81.8993C50.876 82.0141 51.1418 82.1411 51.4076 82.2681C52.5772 82.8489 53.9091 82.9612 55.1522 82.5836C55.6642 82.432 56.1724 82.2681 56.6805 82.096C57.4366 81.8327 58.2291 81.7026 59.0257 81.7109C59.7194 81.7238 60.4124 81.6606 61.0935 81.5224C61.978 81.3158 62.8776 81.1883 63.7827 81.1414C64.0485 81.1414 64.3143 81.1414 64.584 81.1414C64.0147 81.6052 63.3986 82.0023 62.7469 82.3255C61.8053 82.9122 60.8302 83.4376 59.827 83.8988C58.7085 84.4284 57.5242 84.7898 56.3092 84.9723C55.2695 85.1051 54.2172 85.0872 53.1822 84.919C50.9797 84.5046 48.8786 83.6325 47.0025 82.3541C46.8227 82.2394 46.6155 82.1493 46.5374 81.9116Z" fill="#C13D18"/>
<path d="M105.985 90.8765C106.88 92.962 107.717 95.0392 108.577 97.1247C106.86 97.2476 105.137 97.2476 103.421 97.1247C104.175 94.9983 105.031 92.9129 105.985 90.8765Z" fill="white"/>
<path d="M84.366 72.7175V70.882C84.366 70.6812 84.4441 70.5542 84.6435 70.5542C85.4721 70.5542 86.3008 70.5542 87.1294 70.5542C87.2895 70.5683 87.4479 70.5985 87.6024 70.6443C89.0174 70.9803 89.4434 72.189 89.1151 73.4796C89.0112 73.8452 88.812 74.1732 88.5399 74.4266C88.2678 74.6799 87.9337 74.8486 87.575 74.9136C87.4188 74.9536 87.2589 74.9755 87.0982 74.9792C86.2969 74.9792 85.4956 75.012 84.6943 75.012C84.4402 75.012 84.3699 74.9259 84.3699 74.6473C84.3621 74.0082 84.366 73.3608 84.366 72.7175Z" fill="white"/>
<path d="M157.025 101.923C156.52 101.96 156.014 101.866 155.552 101.648C155.268 101.517 155.027 101.303 154.856 101.032C154.685 100.761 154.591 100.445 154.586 100.12C154.564 99.7981 154.624 99.476 154.762 99.1876C154.899 98.8991 155.109 98.6549 155.368 98.4809C155.73 98.2381 156.141 98.0879 156.568 98.0425C157.606 97.9122 158.659 98.017 159.656 98.3498C159.957 98.4522 159.992 98.5096 160.011 98.8251C160.109 100.464 159.23 101.607 157.666 101.869C157.454 101.899 157.24 101.917 157.025 101.923Z" fill="white"/>
<path d="M157.467 75.7372C157.463 75.1767 157.655 74.6341 158.007 74.2125C158.36 73.7909 158.848 73.5197 159.378 73.4504C159.909 73.3811 160.445 73.5186 160.886 73.8367C161.326 74.1548 161.639 74.6314 161.766 75.1758C161.927 75.7495 161.837 75.774 161.376 75.774H157.768C157.682 75.7699 157.604 75.7536 157.467 75.7372Z" fill="#FEFEFE"/>
</svg>
